<?xml version="1.0" encoding="utf-8"?>
<!-- Generator: Adobe Illustrator 26.0.3, SVG Export Plug-In . SVG Version: 6.00 Build 0)  -->
<svg version="1.1" id="Layer_1" xmlns="http://www.w3.org/2000/svg" xmlns:xlink="http://www.w3.org/1999/xlink" x="0px" y="0px"
	 viewBox="0 0 1398.49 515.28" style="enable-background:new 0 0 1398.49 515.28;" xml:space="preserve">
<style type="text/css">
	.st0{fill:url(#SVGID_1_);}
	.st1{fill:url(#SVGID_00000069382447607276152780000006072337669396504203_);}
	.st2{fill:url(#SVGID_00000123405414179299743440000002060241267057032083_);}
	.st3{fill:url(#SVGID_00000022539129003280986880000002362884748871199652_);}
	.st4{fill:url(#SVGID_00000114776012738642705340000009336956615814830738_);}
	.st5{fill:url(#SVGID_00000122680854618306830640000017255209913224049334_);}
	.st6{fill:url(#SVGID_00000053517876734048320730000017638046075968351378_);}
	.st7{fill:url(#SVGID_00000136393455387433010170000001068550459277314476_);}
	.st8{fill:url(#SVGID_00000052805291713405165070000014951505665724072355_);}
	.st9{fill:url(#SVGID_00000085959604291153051300000002190135015043477904_);}
	.st10{fill:url(#SVGID_00000041993077193537387500000007265598992744464788_);}
	.st11{fill:url(#SVGID_00000163048149013963457420000014759598559739946401_);}
	.st12{opacity:0.49;}
	.st13{fill:#FFFFFF;}
	.st14{fill:url(#SVGID_00000065048221518240116180000003907760736599594882_);}
</style>
<g>
	
		<linearGradient id="SVGID_1_" gradientUnits="userSpaceOnUse" x1="648.6063" y1="107.4659" x2="648.6063" y2="107.4659" gradientTransform="matrix(0.9409 -0.3386 0.3386 0.9409 -27.1922 247.7966)">
		<stop  offset="0" style="stop-color:#9A9DCF"/>
		<stop  offset="1" style="stop-color:#F6E8F9"/>
	</linearGradient>
	<path class="st0" d="M619.48,129.27"/>
	
		<linearGradient id="SVGID_00000154402379846594549600000015721383261611410853_" gradientUnits="userSpaceOnUse" x1="176.785" y1="-147.9821" x2="244.7951" y2="-147.9821" gradientTransform="matrix(-1 -7.913385e-03 7.913385e-03 -1 1012.6827 26.3964)">
		<stop  offset="0" style="stop-color:#54436B"/>
		<stop  offset="0.5041" style="stop-color:#867097"/>
		<stop  offset="1" style="stop-color:#BBA0C5"/>
	</linearGradient>
	<polygon style="fill:url(#SVGID_00000154402379846594549600000015721383261611410853_);" points="766.8,162.37 834.81,162.9 
		834.65,183.05 766.64,182.51 	"/>
	
		<linearGradient id="SVGID_00000116925837308513319430000016468851551526078601_" gradientUnits="userSpaceOnUse" x1="622.8193" y1="29.1408" x2="690.8293" y2="29.1408" gradientTransform="matrix(1 7.913385e-03 -7.913385e-03 1 -65.3814 138.4617)">
		<stop  offset="0" style="stop-color:#54436B"/>
		<stop  offset="0.5041" style="stop-color:#867097"/>
		<stop  offset="1" style="stop-color:#BBA0C5"/>
	</linearGradient>
	<polygon style="fill:url(#SVGID_00000116925837308513319430000016468851551526078601_);" points="625.12,183.14 557.11,182.6 
		557.27,162.46 625.28,163 	"/>
	
		<linearGradient id="SVGID_00000055671829718040114410000008615783430836309901_" gradientUnits="userSpaceOnUse" x1="625.3051" y1="249.3228" x2="721.9003" y2="249.3228" gradientTransform="matrix(0.9409 -0.3386 0.3386 0.9409 -27.1922 247.7966)">
		<stop  offset="0" style="stop-color:#9A9DCF"/>
		<stop  offset="0.363" style="stop-color:#9C9FD0"/>
		<stop  offset="0.5446" style="stop-color:#A4A5D4"/>
		<stop  offset="0.6862" style="stop-color:#B1B0DA"/>
		<stop  offset="0.8068" style="stop-color:#C4BFE2"/>
		<stop  offset="0.9132" style="stop-color:#DCD3ED"/>
		<stop  offset="1" style="stop-color:#F6E8F9"/>
	</linearGradient>
	<path style="fill:url(#SVGID_00000055671829718040114410000008615783430836309901_);" d="M730.27,271.41l-78.72-0.62
		c-4.69-0.04-8.45-3.87-8.42-8.55l0.13-16.66c0.04-4.69,3.87-8.45,8.55-8.42l78.72,0.62c4.69,0.04,8.45,3.87,8.42,8.55l-0.13,16.66
		C738.78,267.68,734.95,271.45,730.27,271.41z"/>
	
		<linearGradient id="SVGID_00000154399538764599359040000016767980968780221876_" gradientUnits="userSpaceOnUse" x1="707.7949" y1="97.2861" x2="771.9831" y2="43.4258" gradientTransform="matrix(0.9409 -0.3386 0.3386 0.9409 -27.1922 247.7966)">
		<stop  offset="0" style="stop-color:#9A9DCF"/>
		<stop  offset="1" style="stop-color:#F6E8F9"/>
	</linearGradient>
	<path style="fill:url(#SVGID_00000154399538764599359040000016767980968780221876_);" d="M740.16,84l-95.02-0.75
		c-3.36-0.03-6.07-2.77-6.04-6.14l0.22-28.17c0.03-3.36,2.77-6.07,6.14-6.04l95.02,0.75c3.36,0.03,6.07,2.77,6.04,6.14l-0.22,28.17
		C746.27,81.32,743.52,84.02,740.16,84z"/>
	
		<linearGradient id="SVGID_00000111913195961568524460000008255953928645151145_" gradientUnits="userSpaceOnUse" x1="743.8608" y1="191.6647" x2="800.6092" y2="191.6647" gradientTransform="matrix(0.9409 -0.3386 0.3386 0.9409 -27.1922 247.7966)">
		<stop  offset="0" style="stop-color:#9A9DCF"/>
		<stop  offset="1" style="stop-color:#F6E8F9"/>
	</linearGradient>
	<path style="fill:url(#SVGID_00000111913195961568524460000008255953928645151145_);" d="M774.69,211.17L753.25,211
		c-2.47-0.02-4.46-2.04-4.44-4.52l0.63-79.95c0.02-2.47,2.04-4.46,4.52-4.44l21.44,0.17c2.47,0.02,4.46,2.04,4.44,4.52l-0.63,79.95
		C779.19,209.2,777.17,211.19,774.69,211.17z"/>
	
		<linearGradient id="SVGID_00000125576073429363872950000000249837291810346118_" gradientUnits="userSpaceOnUse" x1="609.2292" y1="166.5456" x2="799.0425" y2="166.5456" gradientTransform="matrix(0.9409 -0.3386 0.3386 0.9409 -27.1922 247.7966)">
		<stop  offset="0" style="stop-color:#9A9DCF"/>
		<stop  offset="1" style="stop-color:#F6E8F9"/>
	</linearGradient>
	<path style="fill:url(#SVGID_00000125576073429363872950000000249837291810346118_);" d="M755.59,250.72l-129.03-1.02
		c-4.43-0.04-8-3.66-7.96-8.09l1.2-152.26c0.04-4.43,3.66-8,8.09-7.96l129.03,1.02c4.43,0.04,8,3.66,7.96,8.09l-1.2,152.26
		C763.64,247.2,760.02,250.76,755.59,250.72z"/>
	<g>
		<g>
			
				<linearGradient id="SVGID_00000171000836764942112360000010817920464547677871_" gradientUnits="userSpaceOnUse" x1="630.8165" y1="347.8982" x2="630.8165" y2="443.9203" gradientTransform="matrix(0.9409 -0.3386 0.3386 0.9409 -27.1922 247.7966)">
				<stop  offset="0" style="stop-color:#9A9DCF"/>
				<stop  offset="1" style="stop-color:#F6E8F9"/>
			</linearGradient>
			<path style="fill:url(#SVGID_00000171000836764942112360000010817920464547677871_);" d="M693.38,460.26
				c-0.36,0.13-0.75,0.2-1.15,0.21c-1.18,0.02-2.29-0.53-2.98-1.49l-54.23-74.88c-1.17-1.61-0.81-3.86,0.8-5.03
				c1.61-1.17,3.86-0.81,5.03,0.8l51.19,70.69l49.03-73.52c1.1-1.66,3.34-2.1,4.99-1c1.65,1.1,2.1,3.34,1,4.99l-51.9,77.83
				C694.73,459.52,694.1,460,693.38,460.26z"/>
		</g>
		
			<linearGradient id="SVGID_00000151503739001286258970000001430751968676115328_" gradientUnits="userSpaceOnUse" x1="544.2819" y1="339.5364" x2="724.8362" y2="339.5364" gradientTransform="matrix(0.9409 -0.3386 0.3386 0.9409 -27.1922 247.7966)">
			<stop  offset="0" style="stop-color:#9A9DCF"/>
			<stop  offset="1" style="stop-color:#F6E8F9"/>
		</linearGradient>
		<path style="fill:url(#SVGID_00000151503739001286258970000001430751968676115328_);" d="M691.17,290.38
			c-51.15,1.19-91.66,43.63-90.47,94.78l185.25-4.32C784.76,329.69,742.32,289.18,691.17,290.38z"/>
		
			<linearGradient id="SVGID_00000086683101134149117780000010803042816952078991_" gradientUnits="userSpaceOnUse" x1="591.5172" y1="442.706" x2="616.7325" y2="442.706" gradientTransform="matrix(0.9409 -0.3386 0.3386 0.9409 -27.1922 247.7966)">
			<stop  offset="0" style="stop-color:#9A9DCF"/>
			<stop  offset="1" style="stop-color:#F6E8F9"/>
		</linearGradient>
		<circle style="fill:url(#SVGID_00000086683101134149117780000010803042816952078991_);" cx="691.15" cy="459.77" r="12.61"/>
	</g>
	
		<linearGradient id="SVGID_00000173118731334388908710000003624031101252439185_" gradientUnits="userSpaceOnUse" x1="598.2609" y1="276.0392" x2="730.8875" y2="276.0392" gradientTransform="matrix(0.9409 -0.3386 0.3386 0.9409 -27.1922 247.7966)">
		<stop  offset="0" style="stop-color:#9A9DCF"/>
		<stop  offset="1" style="stop-color:#F6E8F9"/>
	</linearGradient>
	<path style="fill:url(#SVGID_00000173118731334388908710000003624031101252439185_);" d="M750.02,299.76l-117.12-0.93
		c-4.69-0.04-8.45-3.87-8.42-8.55l0.13-16.66c0.04-4.69,3.87-8.45,8.55-8.42l117.12,0.93c4.69,0.04,8.45,3.87,8.42,8.55l-0.13,16.66
		C758.54,296.03,754.71,299.79,750.02,299.76z"/>
	
		<linearGradient id="SVGID_00000096032220040057198390000005768480001622067358_" gradientUnits="userSpaceOnUse" x1="862.9413" y1="83.6363" x2="1391.8569" y2="83.6363" gradientTransform="matrix(1 -1.844788e-03 1.844788e-03 1 -38.4043 87.5737)">
		<stop  offset="0" style="stop-color:#428BC1"/>
		<stop  offset="1" style="stop-color:#A7ACE4"/>
	</linearGradient>
	<path style="fill:url(#SVGID_00000096032220040057198390000005768480001622067358_);" d="M1349.85,288.86l-520.96,0.96
		c-2.2,0-3.98-1.77-3.98-3.97l-0.43-232.47c0-2.2,1.77-3.98,3.97-3.98l520.96-0.96c2.2,0,3.98,1.77,3.98,3.97l0.43,232.47
		C1353.83,287.07,1352.05,288.86,1349.85,288.86z"/>
	<g>
		<g class="st12">
			<g>
				
					<rect x="824.8" y="226.65" transform="matrix(1 -1.845270e-03 1.845270e-03 1 -0.4173 2.0104)" class="st13" width="528.92" height="1.03"/>
			</g>
			<g>
				
					<rect x="824.57" y="105" transform="matrix(1 -1.844376e-03 1.844376e-03 1 -0.1928 2.0088)" class="st13" width="528.92" height="1.03"/>
			</g>
			<g>
				
					<rect x="824.69" y="165.7" transform="matrix(1 -1.845270e-03 1.845270e-03 1 -0.3049 2.01)" class="st13" width="528.92" height="1.03"/>
			</g>
		</g>
		<g class="st12">
			<g>
				
					<rect x="884.83" y="49.3" transform="matrix(1 -1.782809e-03 1.782809e-03 1 -0.3008 1.5787)" class="st13" width="1.03" height="240.42"/>
			</g>
			<g>
				
					<rect x="1296.15" y="48.54" transform="matrix(1 -1.782809e-03 1.782809e-03 1 -0.2988 2.312)" class="st13" width="1.03" height="240.42"/>
			</g>
			<g>
				
					<rect x="1237.39" y="48.65" transform="matrix(1 -1.782809e-03 1.782809e-03 1 -0.2991 2.2072)" class="st13" width="1.03" height="240.42"/>
			</g>
			<g>
				<rect x="1178.86" y="48.78" class="st13" width="1.03" height="240.4"/>
			</g>
			<g>
				
					<rect x="1119.87" y="48.86" transform="matrix(1 -1.782809e-03 1.782809e-03 1 -0.2996 1.9977)" class="st13" width="1.03" height="240.42"/>
			</g>
			<g>
				
					<rect x="1061.11" y="48.97" transform="matrix(1 -1.782809e-03 1.782809e-03 1 -0.2999 1.8929)" class="st13" width="1.03" height="240.42"/>
			</g>
			<g>
				
					<rect x="1002.35" y="49.08" transform="matrix(1 -1.782809e-03 1.782809e-03 1 -0.3002 1.7882)" class="st13" width="1.03" height="240.42"/>
			</g>
			<g>
				
					<rect x="943.59" y="49.19" transform="matrix(1 -1.782809e-03 1.782809e-03 1 -0.3005 1.6834)" class="st13" width="1.03" height="240.42"/>
			</g>
		</g>
	</g>
	<g>
		
			<rect x="707.83" y="282.23" transform="matrix(9.648821e-03 -1 1 9.648821e-03 434.8856 1004.5855)" class="st13" width="33.56" height="1.03"/>
	</g>
	<g>
		
			<rect x="641.69" y="281.67" transform="matrix(9.648821e-03 -1 1 9.648821e-03 369.9489 937.9022)" class="st13" width="33.56" height="1.03"/>
	</g>
	<g>
		<path class="st13" d="M709.76,61.11c-0.22,0.08-0.45,0.12-0.7,0.12l-33.23-0.26c-1.11-0.01-2.01-0.92-2.01-2.04l0.12-15.24
			l1.03,0.01l-0.12,15.24c0,0.55,0.44,1,0.98,1l33.23,0.26c0.55,0,1-0.44,1-0.99l0.12-15.24l1.03,0.01l-0.12,15.24
			C711.09,60.09,710.53,60.83,709.76,61.11z"/>
	</g>
	<g>
		<path class="st13" d="M653.1,197.53c-0.41,0.15-0.85,0.22-1.3,0.22l-32.66-0.26l0.01-1.03l32.66,0.26c0.73,0,1.41-0.27,1.93-0.78
			c0.52-0.51,0.8-1.19,0.81-1.91l0.56-71.23c0.01-1.5-1.2-2.73-2.7-2.74l-32.66-0.26l0.01-1.03l32.66,0.26
			c2.07,0.02,3.73,1.71,3.72,3.77l-0.56,71.23c-0.01,1-0.41,1.94-1.12,2.64C654.07,197.06,653.61,197.35,653.1,197.53z"/>
	</g>
	<g>
		
			<rect x="691.78" y="23.08" transform="matrix(7.064851e-03 -1 1 7.064851e-03 591.7883 787.2251)" class="st13" width="1.03" height="145.09"/>
	</g>
	<g>
		
			<rect x="690.72" y="157.58" transform="matrix(7.058354e-03 -1 1 7.058354e-03 456.235 919.7164)" class="st13" width="1.03" height="145.09"/>
	</g>
	<g>
		<path class="st13" d="M732.66,174.15c-0.49,0.18-1.02,0.27-1.58,0.27l-21.16-0.17c-1.22-0.01-2.36-0.49-3.22-1.36
			c-0.86-0.87-1.32-2.02-1.31-3.24l0.17-21.16c0.02-2.52,2.09-4.56,4.6-4.53l21.16,0.17c1.22,0.01,2.36,0.49,3.22,1.36
			c0.86,0.87,1.32,2.02,1.31,3.24l-0.17,21.16C735.68,171.85,734.41,173.52,732.66,174.15z M731.1,173.39
			c1.95,0.01,3.55-1.56,3.57-3.51l0.17-21.16c0.01-0.95-0.35-1.84-1.02-2.51c-0.66-0.67-1.55-1.05-2.5-1.06l-21.16-0.17
			c-1.95-0.02-3.55,1.56-3.57,3.51l-0.17,21.16c-0.01,0.95,0.35,1.84,1.02,2.51c0.66,0.67,1.55,1.05,2.5,1.06L731.1,173.39z"/>
	</g>
	
		<linearGradient id="SVGID_00000054978054289582475180000011567013487700048812_" gradientUnits="userSpaceOnUse" x1="83.1338" y1="83.6363" x2="612.0494" y2="83.6363" gradientTransform="matrix(1 -1.844788e-03 1.844788e-03 1 -38.4043 87.5737)">
		<stop  offset="0" style="stop-color:#428BC1"/>
		<stop  offset="1" style="stop-color:#A7ACE4"/>
	</linearGradient>
	<path style="fill:url(#SVGID_00000054978054289582475180000011567013487700048812_);" d="M570.05,290.3l-520.96,0.96
		c-2.2,0-3.98-1.77-3.98-3.97L44.67,54.82c0-2.2,1.77-3.98,3.97-3.98l520.96-0.96c2.2,0,3.98,1.77,3.98,3.97l0.43,232.47
		C574.02,288.51,572.24,290.29,570.05,290.3z"/>
	<g>
		<g class="st12">
			<g>
				
					<rect x="44.99" y="228.09" transform="matrix(1 -1.845270e-03 1.845270e-03 1 -0.4213 0.5714)" class="st13" width="528.92" height="1.03"/>
			</g>
			<g>
				
					<rect x="44.77" y="106.44" transform="matrix(1 -1.844376e-03 1.844376e-03 1 -0.1967 0.5705)" class="st13" width="528.92" height="1.03"/>
			</g>
			<g>
				
					<rect x="44.88" y="167.14" transform="matrix(1 -1.844376e-03 1.844376e-03 1 -0.3087 0.5708)" class="st13" width="528.92" height="1.03"/>
			</g>
		</g>
		<g class="st12">
			<g>
				
					<rect x="105.02" y="50.73" transform="matrix(1 -1.782809e-03 1.782809e-03 1 -0.3046 0.1884)" class="st13" width="1.03" height="240.42"/>
			</g>
			<g>
				
					<rect x="516.34" y="49.98" transform="matrix(1 -1.782809e-03 1.782809e-03 1 -0.3026 0.9217)" class="st13" width="1.03" height="240.42"/>
			</g>
			<g>
				
					<rect x="457.58" y="50.08" transform="matrix(1 -2.702674e-03 2.702674e-03 1 -0.4586 1.2387)" class="st13" width="1.03" height="240.42"/>
			</g>
			<g>
				<rect x="399.06" y="50.22" class="st13" width="1.03" height="240.4"/>
			</g>
			<g>
				
					<rect x="340.06" y="50.3" transform="matrix(1 -1.782809e-03 1.782809e-03 1 -0.3034 0.6075)" class="st13" width="1.03" height="240.42"/>
			</g>
			<g>
				
					<rect x="281.3" y="50.41" transform="matrix(1 -1.782809e-03 1.782809e-03 1 -0.3037 0.5027)" class="st13" width="1.03" height="240.42"/>
			</g>
			<g>
				
					<rect x="222.54" y="50.52" transform="matrix(1 -1.782809e-03 1.782809e-03 1 -0.304 0.3979)" class="st13" width="1.03" height="240.42"/>
			</g>
			<g>
				
					<rect x="163.78" y="50.63" transform="matrix(1 -1.782809e-03 1.782809e-03 1 -0.3043 0.2932)" class="st13" width="1.03" height="240.42"/>
			</g>
		</g>
	</g>
</g>
</svg>
