<svg id="Layer_1" data-name="Layer 1" xmlns="http://www.w3.org/2000/svg" xmlns:xlink="http://www.w3.org/1999/xlink" viewBox="0 0 2713.34 1243.43"><defs><style>.cls-1{fill:url(#linear-gradient);}.cls-2{fill:url(#linear-gradient-2);}.cls-3{fill:url(#linear-gradient-3);}.cls-4{fill:url(#linear-gradient-4);}.cls-5{fill:url(#linear-gradient-5);}.cls-6{fill:url(#linear-gradient-6);}.cls-7{fill:url(#linear-gradient-7);}.cls-8{fill:url(#linear-gradient-8);}.cls-9{fill:url(#linear-gradient-9);}.cls-10{fill:url(#linear-gradient-10);}.cls-11{fill:url(#linear-gradient-11);}.cls-12{fill:url(#linear-gradient-12);}.cls-13{fill:url(#linear-gradient-13);}.cls-14{fill:url(#linear-gradient-14);}.cls-15{fill:url(#linear-gradient-15);}.cls-16{fill:url(#linear-gradient-16);}.cls-17{fill:url(#linear-gradient-17);}.cls-18{fill:url(#linear-gradient-18);}.cls-19{fill:url(#linear-gradient-19);}.cls-20{fill:url(#linear-gradient-20);}.cls-21{fill:url(#linear-gradient-21);}.cls-22{fill:url(#linear-gradient-22);}.cls-23{fill:url(#linear-gradient-23);}.cls-24{fill:url(#linear-gradient-24);}.cls-25{fill:url(#linear-gradient-25);}.cls-26{fill:url(#linear-gradient-26);}.cls-27{fill:url(#linear-gradient-27);}.cls-28{fill:url(#linear-gradient-28);}.cls-29{fill:url(#linear-gradient-29);}.cls-30{fill:url(#linear-gradient-30);}.cls-31{fill:url(#linear-gradient-31);}.cls-32{fill:url(#linear-gradient-32);}.cls-33{fill:url(#linear-gradient-33);}.cls-34{fill:url(#linear-gradient-34);}.cls-35{fill:url(#linear-gradient-35);}.cls-36{fill:url(#linear-gradient-36);}.cls-37{fill:url(#linear-gradient-37);}.cls-38{fill:url(#linear-gradient-38);}.cls-39{fill:url(#linear-gradient-39);}.cls-40{fill:url(#linear-gradient-40);}.cls-41{fill:url(#linear-gradient-41);}.cls-42{fill:url(#linear-gradient-42);}.cls-43{fill:url(#linear-gradient-43);}.cls-44{fill:url(#linear-gradient-44);}.cls-45{fill:url(#linear-gradient-45);}</style><linearGradient id="linear-gradient" x1="525.55" y1="326.41" x2="525.55" y2="329.1" gradientUnits="userSpaceOnUse"><stop offset="0" stop-color="#9a9dcf"/><stop offset="1" stop-color="#f6e8f9"/></linearGradient><linearGradient id="linear-gradient-2" x1="2531.86" y1="280.44" x2="2531.86" y2="283.13" xlink:href="#linear-gradient"/><linearGradient id="linear-gradient-3" x1="1994.73" y1="661.14" x2="1994.73" y2="663.82" xlink:href="#linear-gradient"/><linearGradient id="linear-gradient-4" x1="896.62" y1="1088.37" x2="896.62" y2="1091.06" xlink:href="#linear-gradient"/><linearGradient id="linear-gradient-5" x1="260.54" y1="407.88" x2="260.54" y2="410.56" xlink:href="#linear-gradient"/><linearGradient id="linear-gradient-6" x1="1106.08" y1="808.08" x2="1106.08" y2="810.77" xlink:href="#linear-gradient"/><linearGradient id="linear-gradient-7" x1="1866.63" y1="95.81" x2="1866.63" y2="98.5" xlink:href="#linear-gradient"/><linearGradient id="linear-gradient-8" x1="96.67" y1="595.89" x2="96.67" y2="598.58" xlink:href="#linear-gradient"/><linearGradient id="linear-gradient-9" x1="775.72" y1="573.09" x2="775.72" y2="575.78" xlink:href="#linear-gradient"/><linearGradient id="linear-gradient-10" x1="467.25" y1="1132.1" x2="467.25" y2="1134.79" xlink:href="#linear-gradient"/><linearGradient id="linear-gradient-11" x1="559.99" y1="837.91" x2="559.99" y2="840.6" xlink:href="#linear-gradient"/><linearGradient id="linear-gradient-12" x1="1943.49" y1="892.23" x2="1943.49" y2="894.91" xlink:href="#linear-gradient"/><linearGradient id="linear-gradient-13" x1="1295.9" y1="620.33" x2="1295.9" y2="623.02" xlink:href="#linear-gradient"/><linearGradient id="linear-gradient-14" x1="508.77" y1="77.29" x2="508.77" y2="79.98" xlink:href="#linear-gradient"/><linearGradient id="linear-gradient-15" x1="1588.03" y1="786.89" x2="1588.03" y2="789.58" xlink:href="#linear-gradient"/><linearGradient id="linear-gradient-16" x1="1966.66" y1="458.16" x2="1966.66" y2="460.85" xlink:href="#linear-gradient"/><linearGradient id="linear-gradient-17" x1="872.24" y1="283.36" x2="872.24" y2="288.28" xlink:href="#linear-gradient"/><linearGradient id="linear-gradient-18" x1="2091.49" y1="1185.31" x2="2091.49" y2="1190.23" xlink:href="#linear-gradient"/><linearGradient id="linear-gradient-19" x1="54.26" y1="1142.21" x2="54.26" y2="1147.13" xlink:href="#linear-gradient"/><linearGradient id="linear-gradient-20" x1="715.07" y1="361.6" x2="715.07" y2="366.52" xlink:href="#linear-gradient"/><linearGradient id="linear-gradient-21" x1="1433.3" y1="1084.79" x2="1433.3" y2="1089.71" xlink:href="#linear-gradient"/><linearGradient id="linear-gradient-22" x1="2573.2" y1="1037.08" x2="2573.2" y2="1042.01" xlink:href="#linear-gradient"/><linearGradient id="linear-gradient-23" x1="2480.75" y1="93.35" x2="2480.75" y2="98.27" xlink:href="#linear-gradient"/><linearGradient id="linear-gradient-24" x1="1736.04" y1="1129.64" x2="1736.04" y2="1134.56" xlink:href="#linear-gradient"/><linearGradient id="linear-gradient-25" x1="962.22" y1="527.3" x2="962.22" y2="532.22" xlink:href="#linear-gradient"/><linearGradient id="linear-gradient-26" x1="2500.92" y1="768.56" x2="2500.92" y2="771.25" xlink:href="#linear-gradient"/><linearGradient id="linear-gradient-27" x1="2575.66" y1="471.28" x2="2575.66" y2="473.97" xlink:href="#linear-gradient"/><linearGradient id="linear-gradient-28" x1="969.5" y1="491.04" x2="969.5" y2="493.73" xlink:href="#linear-gradient"/><linearGradient id="linear-gradient-29" x1="1160.32" y1="377.01" x2="1160.32" y2="379.7" xlink:href="#linear-gradient"/><linearGradient id="linear-gradient-30" x1="2276.66" y1="423.38" x2="2276.66" y2="426.07" xlink:href="#linear-gradient"/><linearGradient id="linear-gradient-31" x1="1674.46" y1="336.25" x2="1674.46" y2="338.94" xlink:href="#linear-gradient"/><linearGradient id="linear-gradient-32" x1="561.33" y1="528.19" x2="561.33" y2="530.88" xlink:href="#linear-gradient"/><linearGradient id="linear-gradient-33" x1="1563.15" y1="215.03" x2="1563.15" y2="217.72" xlink:href="#linear-gradient"/><linearGradient id="linear-gradient-34" x1="854.31" y1="75.95" x2="854.31" y2="78.64" xlink:href="#linear-gradient"/><linearGradient id="linear-gradient-35" x1="1450.18" y1="283.13" x2="1450.18" y2="285.82" xlink:href="#linear-gradient"/><linearGradient id="linear-gradient-36" x1="1297.24" y1="208.45" x2="1297.24" y2="211.13" xlink:href="#linear-gradient"/><linearGradient id="linear-gradient-37" x1="1589.38" y1="526.61" x2="1589.38" y2="529.3" xlink:href="#linear-gradient"/><linearGradient id="linear-gradient-38" x1="1540.66" y1="281.78" x2="1540.66" y2="284.47" xlink:href="#linear-gradient"/><linearGradient id="linear-gradient-39" x1="109.44" y1="104.47" x2="109.44" y2="109.85" xlink:href="#linear-gradient"/><linearGradient id="linear-gradient-40" x1="2127.02" y1="239.71" x2="2127.02" y2="245.09" xlink:href="#linear-gradient"/><linearGradient id="linear-gradient-41" x1="2266.35" y1="889.54" x2="2266.35" y2="894.91" xlink:href="#linear-gradient"/><linearGradient id="linear-gradient-42" x1="2170.09" y1="558.25" x2="2170.09" y2="563.63" xlink:href="#linear-gradient"/><linearGradient id="linear-gradient-43" x1="275.12" y1="799.46" x2="275.12" y2="804.84" xlink:href="#linear-gradient"/><linearGradient id="linear-gradient-44" x1="867.09" y1="749.9" x2="867.09" y2="755.28" xlink:href="#linear-gradient"/><linearGradient id="linear-gradient-45" x1="1172.29" y1="126.92" x2="1172.29" y2="132.3" xlink:href="#linear-gradient"/></defs><circle class="cls-1" cx="525.55" cy="327.76" r="1.34"/><circle class="cls-2" cx="2531.86" cy="281.78" r="1.34"/><circle class="cls-3" cx="1994.73" cy="662.48" r="1.34"/><circle class="cls-4" cx="896.62" cy="1089.71" r="1.34"/><circle class="cls-5" cx="260.54" cy="409.22" r="1.34"/><circle class="cls-6" cx="1106.08" cy="809.42" r="1.34"/><circle class="cls-7" cx="1866.63" cy="97.15" r="1.34"/><circle class="cls-8" cx="96.67" cy="597.24" r="1.34"/><circle class="cls-9" cx="775.72" cy="574.43" r="1.34"/><circle class="cls-10" cx="467.25" cy="1133.44" r="1.34"/><circle class="cls-11" cx="559.99" cy="839.26" r="1.34"/><circle class="cls-12" cx="1943.49" cy="893.57" r="1.34"/><circle class="cls-13" cx="1295.9" cy="621.67" r="1.34"/><circle class="cls-14" cx="508.77" cy="78.64" r="1.34"/><circle class="cls-15" cx="1588.03" cy="788.24" r="1.34"/><circle class="cls-16" cx="1966.66" cy="459.51" r="1.34"/><circle class="cls-17" cx="872.24" cy="285.82" r="2.46"/><circle class="cls-18" cx="2091.49" cy="1187.77" r="2.46"/><circle class="cls-19" cx="54.26" cy="1144.67" r="2.46"/><circle class="cls-20" cx="715.07" cy="364.06" r="2.46"/><circle class="cls-21" cx="1433.3" cy="1087.25" r="2.46"/><circle class="cls-22" cx="2573.2" cy="1039.55" r="2.46"/><circle class="cls-23" cx="2480.75" cy="95.81" r="2.46"/><circle class="cls-24" cx="1736.04" cy="1132.1" r="2.46"/><circle class="cls-25" cx="962.22" cy="529.76" r="2.46"/><circle class="cls-26" cx="2500.92" cy="769.91" r="1.34"/><circle class="cls-27" cx="2575.66" cy="472.62" r="1.34"/><circle class="cls-28" cx="969.5" cy="492.38" r="1.34"/><circle class="cls-29" cx="1160.32" cy="378.36" r="1.34"/><circle class="cls-30" cx="2276.66" cy="424.73" r="1.34"/><circle class="cls-31" cx="1674.46" cy="337.6" r="1.34"/><circle class="cls-32" cx="561.33" cy="529.53" r="1.34"/><circle class="cls-33" cx="1563.15" cy="216.37" r="1.34"/><circle class="cls-34" cx="854.31" cy="77.29" r="1.34"/><circle class="cls-35" cx="1450.18" cy="284.47" r="1.34"/><circle class="cls-36" cx="1297.24" cy="209.79" r="1.34"/><circle class="cls-37" cx="1589.38" cy="527.96" r="1.34"/><circle class="cls-38" cx="1540.66" cy="283.13" r="1.34"/><circle class="cls-39" cx="109.44" cy="107.16" r="2.69"/><circle class="cls-40" cx="2127.02" cy="242.4" r="2.69"/><circle class="cls-41" cx="2266.35" cy="892.23" r="2.69"/><circle class="cls-42" cx="2170.09" cy="560.94" r="2.69"/><circle class="cls-43" cx="275.12" cy="802.15" r="2.69"/><circle class="cls-44" cx="867.09" cy="752.59" r="2.69"/><circle class="cls-45" cx="1172.29" cy="129.61" r="2.69"/></svg>